<svg width="100" height="36" viewBox="0 0 100 36" fill="none" xmlns="http://www.w3.org/2000/svg">
<g clip-path="url(#clip0_302_315)">
<path d="M2.42383 25.8734L4.55312 25.2348L4.82141 17.8415C4.82141 17.3953 4.78607 17.1061 4.7154 16.9739C4.64473 16.8418 4.46674 16.6952 4.18275 16.5329L2.84393 15.8028L3.0952 14.1187C4.54788 13.8386 8.16259 12.4633 9.12711 12.0917C9.25668 12.042 9.39932 12.114 9.43595 12.2474C9.58776 12.8101 9.70816 14.1697 9.70688 14.9221L9.66629 24.2312C9.66629 24.6578 9.69639 24.9417 9.75791 25.083C9.81811 25.2256 9.99086 25.3775 10.2748 25.5397L11.7655 26.3916L11.6438 28.6737H2.51413L2.42383 25.8734Z" fill="#FF5470"/>
<path d="M10.5789 25.7815L12.4661 25.2332V17.8399C12.4661 17.3937 12.436 17.1045 12.3745 16.9723C12.313 16.8402 12.1507 16.6936 11.8877 16.5313L10.5488 15.8011L10.6404 13.519L11.4623 13.3672C13.9581 12.8608 15.8034 12.586 17.0008 12.5455C17.1631 12.9721 17.2953 13.4078 17.3961 13.854C18.4915 13.3476 19.4299 12.9864 20.2111 12.7745C20.9912 12.5612 21.707 12.4552 22.3561 12.4552C23.1466 12.4552 23.8873 12.603 24.577 12.8962C25.2667 13.1906 25.7837 13.5805 26.1292 14.0673C27.2861 13.4994 28.3252 13.0885 29.2479 12.8347C30.1705 12.5808 31.0487 12.4539 31.8797 12.4539C33.5431 12.4539 34.7707 12.9302 35.5612 13.8841C36.3516 14.838 36.7481 16.2879 36.7481 18.235V24.2295C36.7481 24.6561 36.7782 24.9401 36.8398 25.0814C36.9 25.224 37.0727 25.3758 37.3567 25.5381L38.8172 26.39L38.6955 28.6721H30.4192L30.2673 25.7815L31.7279 25.3549V19.6038C31.7279 18.7323 31.7017 18.1081 31.652 17.7326C31.6009 17.357 31.4334 17.0626 31.1494 16.8506C30.8654 16.6373 30.3891 16.5313 29.719 16.5313C29.1916 16.5313 28.3082 16.6229 27.0715 16.8048C27.112 17.1293 27.133 17.607 27.133 18.235V24.2295C27.133 24.6561 27.1631 24.9401 27.2246 25.0814C27.2848 25.224 27.468 25.3758 27.7729 25.5381L29.2636 26.39L29.1419 28.6721H20.804L20.6522 25.7815L22.1127 25.3549V19.6038C22.1127 18.7114 22.0865 18.078 22.0368 17.7025C21.9858 17.3269 21.8182 17.0377 21.5343 16.8349C21.2503 16.6321 20.7831 16.53 20.1339 16.53C19.4233 16.53 18.5621 16.6216 17.5479 16.8035V24.2269C17.5479 24.6535 17.578 24.9375 17.6395 25.0788C17.6997 25.2214 17.862 25.3732 18.1264 25.5355L19.617 26.3873L19.4953 28.6694H10.7307L10.5789 25.7815Z" fill="#FF5470"/>
<path d="M38.5461 27.9264C37.7137 27.1661 37.2988 26.1873 37.2988 24.99C37.2988 23.3883 38.105 22.1295 39.7187 21.2175C41.3308 20.3041 43.679 19.7872 46.7634 19.6655C46.7634 18.7129 46.6877 18.0076 46.5358 17.5509C46.384 17.0942 46.1106 16.7801 45.714 16.6074C45.3187 16.4347 44.714 16.3483 43.9038 16.3483C43.0715 16.3483 42.4839 16.3784 42.1387 16.4399L40.8912 18.9039L38.639 18.7521C38.2935 17.1295 38.0501 15.4467 37.9087 13.7011C39.0447 13.3164 40.2865 13.0115 41.6361 12.7878C42.9853 12.5653 44.2483 12.4528 45.4247 12.4528C47.5747 12.4528 49.1166 12.8741 50.0498 13.7155C50.9827 14.5569 51.4499 15.9518 51.4499 17.899V24.2585C51.4499 24.6236 51.4853 24.8775 51.556 25.0188C51.6266 25.1614 51.7839 25.3027 52.0271 25.4454L53.2442 26.1455L53.1227 28.0324C50.7695 28.5807 48.9123 28.8843 47.5542 28.9457C47.5134 28.8241 47.452 28.6069 47.3708 28.2915C47.2897 27.9774 47.219 27.6778 47.1576 27.3938C46.3669 27.9015 45.4993 28.3072 44.5555 28.6108C43.6122 28.9157 42.7142 29.0675 41.8625 29.0675C40.483 29.0675 39.3771 28.688 38.5461 27.9264ZM46.8524 24.8081L46.7308 22.4959C46.2438 22.4553 45.9195 22.4357 45.7571 22.4357C45.2088 22.4357 44.5703 22.492 43.8397 22.6032C43.1096 22.7144 42.5309 22.8414 42.1057 22.984C42.0443 23.2483 42.014 23.4917 42.014 23.7142C42.014 24.3226 42.1818 24.7937 42.5166 25.1287C42.8517 25.4637 43.3123 25.6312 43.9015 25.6312C44.7128 25.6299 45.6969 25.3564 46.8524 24.8081Z" fill="#FF5470"/>
<path d="M52.8912 34.5137C51.7044 33.7835 51.1113 32.7078 51.1113 31.2881C51.1113 29.7871 51.8011 28.4694 53.1806 27.3323C52.7549 26.9057 52.5417 26.4399 52.5417 25.9321C52.5417 25.202 53.0182 24.1669 53.9721 22.8283C52.3087 21.9568 51.4764 20.4546 51.4764 18.3255C51.4764 16.4596 52.1098 15.0149 53.3779 13.9903C54.6463 12.9657 56.4771 12.4541 58.8706 12.4541C60.5539 12.4541 61.933 12.7079 63.0088 13.2143L66.6603 12.089H68.0906V16.5001H65.7165C65.8175 17.0078 65.8684 17.5038 65.8684 17.9906C65.8684 19.8565 65.2388 21.2763 63.9813 22.2499C62.7237 23.2235 60.877 23.7102 58.4427 23.7102C57.6104 23.7102 56.8604 23.6487 56.1905 23.527V23.9536C56.1905 24.2781 56.328 24.5072 56.6014 24.638C56.8748 24.7702 57.469 24.8971 58.3813 25.0188L61.1205 25.414C63.2705 25.7189 64.7572 26.2462 65.5779 26.996C66.3997 27.7471 66.811 28.7102 66.811 29.8866C66.811 31.712 66.0594 33.1213 64.5584 34.1158C63.0573 35.109 60.9267 35.6063 58.1681 35.6063C55.8371 35.6089 54.0769 35.2438 52.8912 34.5137ZM61.7003 31.9279C61.8219 31.6845 61.8833 31.36 61.8833 30.9544C61.8833 30.4676 61.7108 30.0973 61.3663 29.8434C61.0211 29.5896 60.4032 29.4024 59.5107 29.2807L58.537 29.129C57.643 29.0269 56.7416 28.8856 55.8281 28.7024C55.7062 29.2506 55.6448 29.6864 55.6448 30.0109C55.6448 30.7411 55.9695 31.2841 56.6185 31.6388C57.2674 31.9934 58.2516 32.1713 59.5697 32.1713C60.5026 32.1713 61.2133 32.0902 61.7003 31.9279ZM60.3612 20.5488C60.4424 20.3054 60.5185 19.9403 60.5892 19.4535C60.6599 18.9667 60.6952 18.5205 60.6952 18.1149C60.6952 17.2015 60.4975 16.5224 60.101 16.0762C59.7056 15.6299 59.092 15.4062 58.2597 15.4062C57.8539 15.4062 57.4076 15.4676 56.9206 15.5894C56.8189 15.8328 56.7323 16.1874 56.6616 16.6545C56.5909 17.1217 56.5555 17.5679 56.5555 17.9932C56.5555 18.9262 56.7482 19.6158 57.1342 20.062C57.5187 20.5082 58.1079 20.732 58.8982 20.732C59.3262 20.7307 59.8128 20.6705 60.3612 20.5488Z" fill="#FF5470"/>
<path d="M68.472 26.8766C67.183 25.4373 66.5391 23.4496 66.5391 20.9136C66.5391 19.1484 66.8529 17.633 67.4824 16.365C68.1108 15.0971 69.0045 14.1287 70.1603 13.4588C71.3172 12.7888 72.6649 12.4551 74.2079 12.4551C76.5009 12.4551 78.2598 13.1853 79.4874 14.6456C80.7151 16.1059 81.2973 18.1853 81.2371 20.8835L71.986 22.5872C72.2699 23.4391 72.6703 24.0633 73.1872 24.4584C73.7042 24.8536 74.3885 25.0512 75.2406 25.0512C75.8282 25.0512 76.5284 24.9649 77.3397 24.7921C78.1511 24.6194 78.9732 24.3812 79.804 24.0777L80.5042 27.0899C79.7531 27.6579 78.7794 28.125 77.5832 28.4901C76.3859 28.8552 75.1792 29.0384 73.9621 29.0384C71.5906 29.0371 69.7598 28.3174 68.472 26.8766ZM76.2457 18.3266C76.2053 17.5558 75.9866 16.9931 75.5913 16.6385C75.1963 16.2839 74.6425 16.1059 73.9333 16.1059C73.3441 16.1059 72.7868 16.1871 72.2594 16.3493C71.8342 17.3438 71.6404 18.4182 71.6807 19.5749L76.2457 18.3266Z" fill="#FF5470"/>
<path d="M80.2936 25.7513L82.1807 25.203V17.8398C82.1807 17.3936 82.1508 17.1044 82.089 16.9722C82.0277 16.8401 81.8653 16.6935 81.6024 16.5312L80.2637 15.8011L80.3549 13.5189L81.0237 13.3973C83.6818 12.8699 85.598 12.586 86.7755 12.5454C86.9379 12.972 87.0703 13.4378 87.1709 13.9455C88.4079 13.3776 89.418 12.9877 90.1994 12.7744C90.9793 12.5611 91.7149 12.4551 92.4058 12.4551C95.632 12.4551 97.2442 14.3826 97.2442 18.2363V24.1993C97.2442 24.6259 97.2744 24.9099 97.3358 25.0512C97.3972 25.1939 97.5688 25.3456 97.8527 25.5079L99.3134 26.3598L99.1915 28.6419H90.7921L90.6402 25.7513L92.1308 25.3247V19.5736C92.1308 18.6602 92.1009 18.0217 92.0396 17.6566C91.9794 17.2915 91.8116 17.0076 91.537 16.8047C91.2632 16.6019 90.7804 16.4998 90.0919 16.4998C89.3617 16.4998 88.4378 16.6111 87.3228 16.8348V24.198C87.3228 24.6246 87.3527 24.9086 87.4144 25.0499C87.4746 25.1925 87.6369 25.3443 87.901 25.5066L89.392 26.3585L89.2701 28.6406H80.4454L80.2936 25.7513Z" fill="#FF5470"/>
<path d="M6.50636 11.5591C9.60783 11.5591 12.1221 9.04518 12.1221 5.94409C12.1221 2.84302 9.60783 0.329102 6.50636 0.329102C3.40487 0.329102 0.890625 2.84302 0.890625 5.94409C0.890625 9.04518 3.40487 11.5591 6.50636 11.5591Z" fill="#FF5470"/>
</g>
<defs>
<clipPath id="clip0_302_315">
<rect width="98.647" height="35.342" fill="white" transform="translate(0.890625 0.328979)"/>
</clipPath>
</defs>
</svg>
