<svg width="87" height="40" viewBox="0 0 87 40" fill="none" xmlns="http://www.w3.org/2000/svg">
<path d="M51.7163 4.04944H35.6797V18.5468H51.7163V4.04944Z" fill="white"/>
<path fill-rule="evenodd" clip-rule="evenodd" d="M32.3594 22.7584V11.3792V0H43.7389H55.1183V11.3792V22.7584H43.7389H32.3594ZM45.2373 10.2453C45.2373 12.7621 45.2588 14.8213 45.2855 14.8213C45.3434 14.8213 48.6388 12.8709 48.6388 12.8365C48.6388 12.8232 47.9653 12.417 47.1419 11.9338L45.6451 11.0552L45.6435 9.78456L45.6423 8.51397L46.0169 8.45778C46.8857 8.32747 48.0222 8.60257 48.8645 9.14708C50.0677 9.92474 50.7458 11.0427 50.8753 12.4619C51.0494 14.3693 49.7103 16.2434 47.69 16.9203C47.0893 17.1214 45.9139 17.1487 45.2671 16.9764C43.988 16.6359 42.7762 15.5029 42.3084 14.2107C42.0894 13.6049 42.011 12.0943 42.003 8.32178L41.9975 5.66935H43.6174H45.2373V10.2453ZM41.5521 16.8866L41.5728 11.2779L41.5937 5.66935H39.9732H38.353V7.12718V8.58501H37.5023H36.6519V9.84035V11.0957H37.5014H38.3508L38.372 13.9757L38.3933 16.8556L39.9726 16.8711L41.5521 16.8866Z" fill="#D62924"/>
<path fill-rule="evenodd" clip-rule="evenodd" d="M0.681641 26.128V26.6476L1.9678 26.6652L3.25396 26.6829L3.27063 31.8762L3.28733 37.0697H3.84046H4.3936V31.8599V26.6503H5.69605H6.99851V26.1294V25.6084H3.84006H0.681641V26.128ZM17.2889 29.4995C17.2902 33.8829 17.2936 33.9223 17.7533 34.8548C18.239 35.8401 19.3071 36.7477 20.3811 37.0878C20.9845 37.2791 22.1996 37.2914 22.7907 37.1121C24.2947 36.656 25.504 35.401 25.8487 33.938C25.9767 33.3948 25.9779 32.2612 25.8506 31.7596C25.7968 31.5462 25.631 31.1239 25.4827 30.821C25.2684 30.383 25.0989 30.1558 24.6533 29.7086C23.8017 28.854 23.0478 28.4982 21.9419 28.4283C20.7052 28.3502 19.6026 28.7462 18.6716 29.6031L18.3949 29.8578V27.7331V25.6084H17.8413H17.2878L17.2889 29.4995ZM30.996 28.3814C30.4122 28.5222 30.2335 28.5811 29.9063 28.7402C29.333 29.0191 29.0067 29.2676 28.4959 29.8147C27.241 31.1584 26.9596 33.1199 27.7823 34.7905C28.1695 35.5766 29.0049 36.4122 29.7913 36.7994C30.5269 37.162 31.1439 37.2887 31.9404 37.2416C32.6832 37.1976 33.1039 37.0802 33.7962 36.7231C34.5107 36.355 35.1987 35.6658 35.5727 34.9433C35.724 34.6512 35.8476 34.3802 35.8476 34.3408C35.8476 34.2944 35.6462 34.2695 35.2709 34.2695H34.694L34.4612 34.6465C34.1739 35.1122 33.6345 35.6288 33.2349 35.8211C33.0695 35.901 32.7176 36.012 32.4534 36.0683C30.7994 36.4199 29.1011 35.4548 28.6167 33.8881C28.3879 33.1476 27.9447 33.2275 32.2738 33.2275H36.0592L36.0266 32.4624C35.9897 31.6012 35.8731 31.1888 35.4844 30.5488C34.6715 29.211 33.3426 28.4241 31.81 28.3728C31.4339 28.3603 31.0676 28.3641 30.996 28.3814ZM8.17069 31.2116C8.17069 34.0173 8.20809 34.4331 8.52379 35.1399C8.73028 35.6024 9.20555 36.2098 9.58144 36.4921C10.5113 37.1899 11.7356 37.4304 12.8754 37.1389C13.553 36.9657 13.9529 36.748 14.4519 36.2815C14.9329 35.8312 15.2527 35.3447 15.4739 34.7253C15.6219 34.311 15.6256 34.2412 15.6467 31.453L15.6684 28.6039H15.1105H14.5527L14.5514 31.0298C14.5506 32.3639 14.5209 33.6572 14.4853 33.9041C14.3996 34.4968 14.1096 35.0297 13.6327 35.4714C13.1015 35.9631 12.677 36.1209 11.8827 36.1222C11.3466 36.1228 11.2137 36.0997 10.8875 35.9478C10.3972 35.7196 9.80521 35.1506 9.56529 34.6767L9.37547 34.3021L9.35658 31.453L9.33776 28.6039H8.75418H8.17069V31.2116ZM22.5167 29.6465C23.3117 29.8919 24.1474 30.6072 24.5035 31.3466C25.1284 32.6438 24.8686 34.1597 23.8435 35.2001C23.158 35.8958 22.3457 36.207 21.3904 36.1397C20.4389 36.0729 19.6205 35.5956 19.0405 34.7699C18.6043 34.1486 18.4435 33.6264 18.4454 32.8366C18.4484 31.5763 19.0515 30.4968 20.0937 29.8861C20.7375 29.5087 21.7475 29.4087 22.5167 29.6465ZM32.741 29.6465C33.2857 29.8147 33.8999 30.2265 34.2351 30.6481C34.5233 31.0104 34.8431 31.6388 34.9099 31.974L34.9523 32.1856H31.7153H28.4786L28.5223 31.974C28.6736 31.2466 29.3472 30.3292 30.0192 29.9356C30.7573 29.5028 31.8876 29.3829 32.741 29.6465Z" fill="white"/>
<path d="M48.8481 35.3733C48.4434 34.6029 48.424 34.4212 48.4231 31.3552L48.4219 28.604H49.005H49.5878L49.6072 31.3878L49.6269 34.1717L49.8025 34.5463C50.0331 35.039 50.5732 35.6015 51.0595 35.8559C51.4285 36.049 51.49 36.0604 52.1666 36.0604C52.8568 36.0604 52.8977 36.0524 53.2883 35.8405C53.7924 35.5671 54.3005 35.0378 54.5308 34.5463L54.7064 34.1717L54.7258 31.3878L54.7452 28.604H55.3283H55.9111L55.9102 31.3552C55.909 34.4009 55.8874 34.6128 55.5024 35.3355C55.2373 35.8331 54.684 36.4359 54.21 36.7431C54.0089 36.8738 53.6171 37.0479 53.3397 37.1303C52.8949 37.2623 52.7384 37.2761 52.0126 37.2484C51.3938 37.2247 51.0927 37.1823 50.799 37.0765C49.9916 36.7856 49.2501 36.1382 48.8481 35.3733Z" fill="#D62924"/>
<path d="M79.9908 32.8093C79.1265 30.6254 78.4053 28.7859 78.3887 28.7213C78.3604 28.6141 78.4136 28.604 79.0035 28.604H79.6494L80.9774 31.8947C81.7078 33.7043 82.3248 35.1476 82.3478 35.1018C82.3712 35.0559 83.002 33.5751 83.75 31.8113L85.1097 28.604H85.7503C86.1025 28.604 86.3796 28.626 86.366 28.6528C86.3522 28.6797 85.2736 31.2439 83.969 34.3507L81.5965 40H80.9617C80.6126 40 80.3269 39.9782 80.3272 39.9511C80.3275 39.9244 80.6056 39.1998 80.9451 38.3411L81.5621 36.7797L79.9908 32.8093Z" fill="#D62924"/>
<path fill-rule="evenodd" clip-rule="evenodd" d="M39.7578 37.0697V31.298V25.5262L41.7277 25.5575C43.6508 25.588 43.7099 25.5929 44.2075 25.7626C45.1249 26.0756 45.8458 26.6763 46.1928 27.4175C46.4369 27.9386 46.4766 28.9335 46.2773 29.5243C46.1223 29.9832 45.7394 30.5232 45.4079 30.7502L45.1794 30.9068L45.546 31.1439C46.2063 31.5707 46.6891 32.255 46.8565 33.0014C46.9521 33.4277 46.9521 34.3042 46.8565 34.6591C46.5689 35.7263 45.5515 36.6652 44.3514 36.9706C44.0439 37.0491 43.5269 37.0697 41.8606 37.0697H39.7578ZM43.3829 31.5997C44.229 31.6885 44.6587 31.8663 45.1031 32.3107C45.5275 32.7351 45.6985 33.1521 45.7034 33.7737C45.7102 34.6936 45.2356 35.3588 44.3262 35.7042C43.8839 35.8724 43.0539 35.9613 41.923 35.9619L40.9951 35.9625V33.7485V31.5345L41.8904 31.5354C42.3831 31.536 43.0545 31.5649 43.3829 31.5997ZM45.1944 28.609C45.1926 27.809 44.8675 27.3331 44.0617 26.9513L43.6324 26.748L42.3139 26.7259L40.9951 26.7038V28.6072V30.5103L42.2487 30.4765C43.3319 30.4476 43.5533 30.4233 43.8787 30.2994C44.3767 30.1096 44.7574 29.8107 44.9988 29.4207C45.1726 29.1393 45.1954 29.0455 45.1944 28.609Z" fill="#D62924"/>
<path fill-rule="evenodd" clip-rule="evenodd" d="M65.2817 27.7266V29.7794L64.8478 29.4116C64.3624 28.9998 63.7009 28.6607 63.0701 28.5008C62.4648 28.3472 61.1746 28.4013 60.602 28.6042C59.6058 28.9573 58.6364 29.8467 58.1535 30.8506C57.8254 31.5333 57.7436 31.8399 57.691 32.5851C57.5972 33.9162 58.0905 35.187 59.0682 36.133C59.4982 36.5488 60.2637 36.9956 60.7834 37.1343C61.6686 37.3702 62.8293 37.3201 63.6231 37.0119C64.8788 36.5245 65.97 35.3103 66.2905 34.0441C66.3729 33.719 66.3886 33.0077 66.3886 29.6647V25.6736H65.8353H65.2817V27.7266ZM65.1169 32.0257C64.877 31.1043 64.1748 30.2324 63.353 29.8347C62.9415 29.6358 62.8459 29.6164 62.1883 29.5982C61.5926 29.5816 61.4068 29.6013 61.0845 29.7151C60.0591 30.0768 59.19 31.0262 58.9612 32.0349C58.776 32.8511 58.9381 33.8943 59.3515 34.546C59.9337 35.4634 60.6681 35.9466 61.7036 36.0933C63.8328 36.3953 65.6812 34.1924 65.1169 32.0257Z" fill="#D62924"/>
<path fill-rule="evenodd" clip-rule="evenodd" d="M75.7037 27.7266V29.7794L75.2697 29.4116C74.7844 28.9998 74.1225 28.6607 73.492 28.5008C72.8865 28.3472 71.5966 28.4013 71.0239 28.6042C70.0278 28.9573 69.0583 29.8467 68.5755 30.8506C68.2473 31.5333 68.1655 31.8399 68.1129 32.5851C68.0188 33.9162 68.5121 35.187 69.4902 36.133C69.9201 36.5488 70.6856 36.9956 71.2051 37.1343C72.0902 37.3702 73.2512 37.3201 74.045 37.0119C75.3008 36.5245 76.392 35.3103 76.7124 34.0441C76.7945 33.719 76.8105 33.0077 76.8105 29.6647V25.6736H76.2572H75.7037V27.7266ZM75.5388 32.0257C75.2989 31.1043 74.5968 30.2324 73.775 29.8347C73.3635 29.6358 73.2678 29.6164 72.6103 29.5982C72.0145 29.5816 71.8285 29.6013 71.5065 29.7151C70.4811 30.0768 69.6119 31.0262 69.3831 32.0349C69.198 32.8511 69.3601 33.8943 69.7734 34.546C70.3556 35.4634 71.09 35.9466 72.1256 36.0933C74.2548 36.3953 76.1032 34.1924 75.5388 32.0257Z" fill="#D62924"/>
</svg>
