<svg width="113" height="36" viewBox="0 0 113 36" fill="none" xmlns="http://www.w3.org/2000/svg">
<g clip-path="url(#clip0_305_332)">
<path d="M48.9751 30.9764V21.0234L46.9541 20.9234V17.0974L53.9541 16.9265V20.4924C54.2568 19.5637 54.775 18.7197 55.4662 18.0294C55.8593 17.6468 56.3245 17.3462 56.835 17.1451C57.3454 16.9441 57.8908 16.8467 58.4392 16.8585C59.038 16.862 59.6331 16.9536 60.2052 17.1305L59.9672 21.6484C59.3917 21.5271 58.8061 21.4602 58.2181 21.4485C57.6217 21.4394 57.032 21.5752 56.4995 21.8441C55.9671 22.113 55.5078 22.507 55.1611 22.9924C54.6764 23.6719 54.3458 24.449 54.1921 25.2694V30.9754L56.5531 31.0954V34.9154H46.9531V31.0954L48.9751 30.9764Z" fill="white"/>
<path d="M64.269 30.9764V21.0425L62.248 20.9225V17.1025L69.5181 16.9325V30.9785L71.5391 31.0985V34.9185H62.248V31.0985L64.269 30.9764Z" fill="white"/>
<path d="M81.4051 20.4985C80.7319 20.482 80.0706 20.6784 79.5154 21.0596C78.9603 21.4407 78.5396 21.9874 78.3132 22.6216C77.884 23.6955 77.6817 24.8466 77.7192 26.0026C77.6681 27.2661 77.9183 28.5237 78.4492 29.6715C78.7116 30.2422 79.1371 30.7225 79.6721 31.0518C80.207 31.381 80.8274 31.5445 81.4551 31.5216C82.138 31.5454 82.811 31.3532 83.3784 30.9724C83.9457 30.5916 84.3785 30.0415 84.6152 29.4005C85.0457 28.3203 85.2479 27.1627 85.2092 26.0005C85.2619 24.7418 85.0111 23.489 84.4781 22.3475C84.2246 21.7559 83.7915 21.2589 83.2401 20.9269C82.6886 20.5949 82.0466 20.4457 81.4051 20.4985ZM81.5742 16.6755C84.5982 16.6755 86.8798 17.5589 88.4191 19.3256C89.9532 21.2025 90.7396 23.5801 90.6271 26.0016C90.7026 27.3037 90.5092 28.6073 90.0591 29.8315C89.6091 31.0558 88.912 32.1743 88.0112 33.1176C86.4938 34.6002 84.3085 35.3426 81.4551 35.3446C78.3751 35.3446 76.0591 34.4612 74.5071 32.6946C72.968 30.8138 72.1812 28.429 72.2991 26.0016C72.2237 24.6992 72.4169 23.3953 72.8668 22.1708C73.3166 20.9463 74.0135 19.8273 74.9141 18.8835C76.4315 17.4109 78.6507 16.6749 81.5721 16.6755" fill="white"/>
<path d="M39.5 24.3046C39.4872 23.5134 39.2957 22.7353 38.9399 22.0285C38.6565 21.4873 38.2206 21.041 37.6861 20.7451C37.1516 20.4492 36.5421 20.3165 35.9329 20.3635C35.3184 20.3264 34.7057 20.4606 34.1629 20.7512C33.6202 21.0418 33.1687 21.4774 32.859 22.0095C32.4575 22.7101 32.2301 23.4969 32.196 24.3036L39.5 24.3046ZM32.213 27.7516C32.4163 30.3102 33.9676 31.5899 36.8669 31.5906C38.8739 31.5494 40.8287 30.9432 42.5069 29.8415L44.307 33.5605C41.9785 34.768 39.3877 35.3813 36.765 35.3456C33.3336 35.3456 30.7632 34.4958 29.0539 32.7965C27.4792 31.2458 26.6923 29.0151 26.6929 26.1045C26.5849 23.6275 27.416 21.2011 29.02 19.3105C30.594 17.5565 32.8812 16.6785 35.8819 16.6765C38.2252 16.5193 40.5366 17.288 42.3189 18.8175C43.7628 20.3273 44.5976 22.3175 44.6629 24.4055C44.7419 25.1875 44.7819 26.3056 44.7819 27.7516H32.213Z" fill="white"/>
<path d="M93.4628 31.0286V21.2095L91.4688 21.1095V17.3395L98.2228 17.1715V19.8015C98.7632 19.1939 99.3703 18.6491 100.033 18.1775C101.305 17.326 102.809 16.8869 104.34 16.9195C106.786 16.9195 108.473 17.8195 109.401 19.6195C109.96 21.024 110.2 22.5358 110.101 24.0445V31.0305L112.096 31.1495V34.9195H102.929V31.1495L104.923 31.0305V24.0445C104.985 23.2308 104.811 22.4163 104.423 21.6985C104.213 21.3899 103.927 21.1412 103.592 20.9766C103.257 20.8119 102.885 20.7371 102.513 20.7595C101.138 20.7595 99.8474 21.6809 98.6407 23.5235V31.0305L100.636 31.1495V34.9195H91.4688V31.1495L93.4628 31.0286Z" fill="white"/>
<path d="M63.8408 9.47045C63.4862 9.83389 63.2267 10.2791 63.0853 10.7667C62.9438 11.2543 62.9246 11.7693 63.0296 12.2661C63.1346 12.7629 63.3604 13.226 63.6871 13.6147C64.0137 14.0034 64.431 14.3057 64.9023 14.4946C65.3735 14.6836 65.8842 14.7535 66.3889 14.6981C66.8935 14.6427 67.3768 14.4638 67.7958 14.1771C68.2149 13.8905 68.5569 13.505 68.7914 13.0547C69.026 12.6044 69.1459 12.1031 69.1407 11.5954C69.1645 10.8094 68.877 10.0457 68.3408 9.47045C68.06 9.1672 67.7178 8.92721 67.3371 8.76635C66.9564 8.60548 66.5459 8.52745 66.1328 8.53746C65.7065 8.52374 65.2821 8.59976 64.8871 8.76049C64.4921 8.92121 64.1363 9.16304 63.8408 9.47045Z" fill="#FD66E2"/>
<path d="M0.464844 0.655518L2.14282 5.77551H5.00684L4.96985 30.1515L1.61584 30.3655V34.9165H15.2299V30.3655L11.2588 30.1515L11.2648 0.651489L0.464844 0.655518Z" fill="white"/>
<path d="M28.7736 11.9415C28.7898 10.3918 28.5161 8.85269 27.9666 7.40356C27.4375 6.03141 26.583 4.80825 25.4766 3.83948C24.2305 2.77304 22.7759 1.97786 21.2056 1.50452C19.22 0.907148 17.1538 0.621064 15.0806 0.656494H11.1406V5.77551H15.0815C16.1461 5.7548 17.2074 5.89775 18.2285 6.19946C19.0498 6.44233 19.808 6.86227 20.4496 7.42957C21.0362 7.96745 21.488 8.63572 21.7686 9.38049C22.0708 10.2007 22.2195 11.0695 22.2075 11.9435C22.2202 12.8622 22.0717 13.7762 21.7686 14.6436C21.4941 15.4201 21.0426 16.1219 20.4496 16.6935C19.8135 17.2796 19.0547 17.7166 18.2285 17.9725C17.1215 18.2465 15.9996 18.4568 14.8685 18.6025L16.5026 23.7025C18.047 23.4463 19.5768 23.1085 21.0856 22.6906C22.6588 22.2003 24.1131 21.3888 25.3566 20.3075C26.4842 19.3003 27.3614 18.0441 27.9186 16.6385C28.5025 15.1412 28.7931 13.5455 28.7745 11.9385" fill="white"/>
</g>
<defs>
<clipPath id="clip0_305_332">
<rect width="111.634" height="34.689" fill="white" transform="translate(0.464844 0.655518)"/>
</clipPath>
</defs>
</svg>
