<svg width="47" height="41" viewBox="0 0 47 41" fill="none" xmlns="http://www.w3.org/2000/svg">
<path d="M3.98467 14.5683H7.70822C8.63911 14.5683 9.33727 13.8236 9.33727 12.8927C9.33727 12.7996 9.33727 12.66 9.29073 12.5669C9.10455 11.8222 8.40639 11.2637 7.66168 11.2637H3.98467C3.84504 11.2637 3.75195 11.3568 3.75195 11.4964V14.2891C3.75195 14.4752 3.84504 14.5683 3.98467 14.5683Z" fill="white"/>
<path d="M3.98467 7.30754H6.35844C7.24278 7.30754 7.98749 6.56283 7.98749 5.67849C7.98749 5.5854 7.98749 5.44577 7.94094 5.35268C7.75477 4.56143 7.0566 4.04944 6.31189 4.04944H3.98467C3.84504 4.04944 3.75195 4.14253 3.75195 4.28216V7.07482C3.75195 7.16791 3.84504 7.30754 3.98467 7.30754Z" fill="white"/>
<path d="M20.3226 14.5683H24.0461C24.9305 14.5683 25.6752 13.8236 25.6752 12.9392C25.6752 12.8461 25.6752 12.7065 25.6286 12.6134C25.4424 11.8222 24.7443 11.3102 23.9996 11.3102H20.3226C20.1829 11.3102 20.0898 11.4033 20.0898 11.5429V14.3356C20.0898 14.4752 20.1829 14.5683 20.3226 14.5683Z" fill="white"/>
<path d="M20.3222 7.30758H22.696C23.6269 7.30758 24.325 6.56287 24.325 5.63198C24.325 5.53889 24.325 5.39926 24.2785 5.30617C24.0923 4.51492 23.3942 4.00293 22.6029 4.00293H20.2757C20.1361 4.00293 20.043 4.09602 20.043 4.23565V7.02831C20.0895 7.16795 20.1826 7.30758 20.3222 7.30758Z" fill="white"/>
<path d="M45.9673 20.9915L28.4201 3.44428C28.327 3.35119 28.1873 3.35119 28.0942 3.44428C28.0012 3.49083 28.0012 3.63046 28.0477 3.72355C28.2804 4.32862 28.3735 4.98024 28.3735 5.67841C28.3735 6.6093 28.1408 7.54018 27.6753 8.33144C27.6288 8.42453 27.6288 8.56416 27.7219 8.65725C28.9786 9.72777 29.7233 11.3103 29.7233 12.9859C29.6302 16.1509 27.0237 18.6177 23.9053 18.6177H16.3185C16.1789 18.6177 16.0858 18.5246 16.0858 18.385V0.232722C16.0858 0.0930887 15.9462 0 15.8065 0H8.7318C8.59216 0 8.49907 0.139633 8.49907 0.279266C8.49907 0.372355 8.54562 0.465443 8.63871 0.511988C10.6867 1.39633 12.0364 3.44428 12.0364 5.67841C12.0364 6.6093 11.8037 7.54018 11.3383 8.37798C11.2917 8.47107 11.2917 8.6107 11.3848 8.70379C12.6415 9.77431 13.3862 11.3568 13.3397 13.0324C13.2466 16.1974 10.6401 18.6643 7.52164 18.6177H0.353815C0.214182 18.6177 0.121094 18.7108 0.121094 18.8505C0.121094 18.897 0.167638 18.9901 0.214182 19.0366L20.7402 39.6092C20.8333 39.7023 21.0195 39.7023 21.1126 39.6092C21.1591 39.5627 21.2057 39.5161 21.2057 39.4231V25.6925C21.2057 25.5528 21.1126 25.4598 20.973 25.4598H16.4582C16.3185 25.4598 16.2254 25.3667 16.2254 25.227V21.7362C16.2254 21.5966 16.3185 21.5035 16.4582 21.5035H30.0491C30.1887 21.5035 30.2818 21.5966 30.2818 21.7362V25.227C30.2818 25.3667 30.1887 25.4598 30.0491 25.4598H25.3947C25.255 25.4598 25.1619 25.5528 25.1619 25.6925V39.7954C25.1619 39.935 25.255 40.0281 25.3947 40.0281H36.5188C36.6584 40.0281 36.7515 39.935 36.7515 39.7954C36.7515 39.7489 36.7515 39.7489 36.7515 39.7023L31.5385 21.7362C31.492 21.5966 31.5851 21.4569 31.7247 21.4104H31.7712H35.4482C35.5413 21.4104 35.6344 21.5035 35.681 21.5966L38.7064 31.976C38.7529 32.1156 38.8925 32.1621 39.0322 32.1621C39.1253 32.1156 39.1718 32.0691 39.2183 31.976L42.2437 21.5966C42.2903 21.5035 42.3834 21.4104 42.4764 21.4104H45.8276C45.9673 21.4104 46.0604 21.3173 46.0604 21.1777C46.0604 21.1311 46.0138 21.038 45.9673 20.9915Z" fill="white"/>
</svg>
