<svg width="38" height="37" viewBox="0 0 38 37" fill="none" xmlns="http://www.w3.org/2000/svg">
<path d="M14.0044 37C12.2859 37 10.8181 36.3735 9.60088 35.1205C8.38366 33.8674 7.72135 32.4175 7.61394 30.7707C5.68071 30.5559 4.06968 29.7056 2.78085 28.2199C1.49203 26.7342 0.847616 24.9352 0.847616 22.8229C0.847616 22.1069 0.937118 21.3999 1.11612 20.7017C1.29512 20.0036 1.56363 19.3503 1.92164 18.7417C1.49203 18.0972 1.16982 17.4081 0.955018 16.6742C0.740214 15.9403 0.632812 15.1616 0.632812 14.3382C0.632812 12.2975 1.32198 10.5433 2.7003 9.07547C4.07863 7.60764 5.75231 6.76633 7.72135 6.55152V6.17562C7.75715 4.45718 8.38366 2.99831 9.60088 1.79898C10.8181 0.599662 12.2859 0 14.0044 0C15.0784 0 16.0003 0.205854 16.77 0.617561C17.5397 1.02927 18.2825 1.61103 18.9986 2.36284C19.7504 1.61103 20.4932 1.02927 21.2272 0.617561C21.9611 0.205854 22.865 0 23.9391 0C25.6217 0 27.0716 0.608611 28.2888 1.82583C29.5061 3.04306 30.1326 4.49298 30.1684 6.17562V6.55152C32.1374 6.73053 33.829 7.55394 35.2431 9.02177C36.6572 10.4896 37.3643 12.2617 37.3643 14.3382C37.3643 15.1616 37.248 15.9492 37.0152 16.701C36.7825 17.4528 36.4514 18.133 36.0218 18.7417C36.3798 19.4219 36.6572 20.12 36.8541 20.836C37.051 21.552 37.1495 22.268 37.1495 22.984C37.1495 25.0963 36.5051 26.8684 35.2163 28.3004C33.9274 29.7325 32.3164 30.5559 30.3832 30.7707C30.24 32.4175 29.5687 33.8674 28.3694 35.1205C27.1701 36.3735 25.7291 37 24.0465 37C22.9008 37 21.9611 36.8031 21.2272 36.4093C20.4932 36.0155 19.7504 35.4248 18.9986 34.6372C18.2467 35.4248 17.4949 36.0155 16.7431 36.4093C15.9913 36.8031 15.0784 37 14.0044 37ZM20.2337 6.06821V30.9318C20.2337 31.9342 20.6096 32.7845 21.3614 33.4826C22.1132 34.1807 23.0261 34.5298 24.1002 34.5298C25.1026 34.5298 25.9707 34.118 26.7047 33.2946C27.4386 32.4712 27.8413 31.5941 27.9129 30.6633C26.9463 30.4485 26.0513 30.0905 25.2279 29.5893C24.4045 29.088 23.7242 28.4436 23.1872 27.656C22.9366 27.3696 22.8382 27.0743 22.8919 26.77C22.9456 26.4656 23.1335 26.1882 23.4557 25.9376C23.7421 25.7228 24.0465 25.6422 24.3687 25.6959C24.6909 25.7496 24.9594 25.9376 25.1742 26.2598C25.6396 26.9758 26.2482 27.5128 27 27.8708C27.7518 28.2288 28.5573 28.4078 29.4166 28.4078C30.9202 28.4078 32.1822 27.9066 33.2025 26.9042C34.2228 25.9018 34.733 24.5951 34.733 22.984C34.733 22.5902 34.6882 22.2054 34.5987 21.8295C34.5092 21.4536 34.4108 21.0687 34.3033 20.6749C33.6589 21.1761 32.9429 21.552 32.1553 21.8026C31.3677 22.0532 30.5622 22.1785 29.7388 22.1785C29.3808 22.1785 29.0854 22.0622 28.8527 21.8295C28.62 21.5968 28.5036 21.3014 28.5036 20.9434C28.5036 20.5854 28.62 20.299 28.8527 20.0842C29.0854 19.8694 29.3808 19.762 29.7388 19.762C31.2066 19.762 32.4417 19.2339 33.4441 18.1778C34.4466 17.1217 34.9478 15.8418 34.9478 14.3382C34.9478 12.8703 34.4287 11.6173 33.3904 10.5791C32.3522 9.54088 31.135 8.98597 29.7388 8.91437C29.3808 9.73778 28.8885 10.4627 28.262 11.0893C27.6355 11.7158 26.9105 12.1901 26.0871 12.5123C25.7649 12.6197 25.4606 12.6018 25.1742 12.4586C24.8878 12.3154 24.6909 12.0827 24.5835 11.7605C24.4761 11.4383 24.485 11.1251 24.6103 10.8208C24.7356 10.5164 24.9594 10.3106 25.2816 10.2032C26.0334 9.95259 26.6331 9.47823 27.0806 8.78012C27.5281 8.082 27.7518 7.30334 27.7518 6.44412C27.7518 5.3343 27.3759 4.39453 26.6241 3.62482C25.8723 2.8551 24.9952 2.47025 23.9928 2.47025C22.9545 2.47025 22.0685 2.8193 21.3346 3.51742C20.6006 4.21553 20.2337 5.0658 20.2337 6.06821ZM17.7634 30.9318V6.06821C17.7634 5.0658 17.3965 4.21553 16.6626 3.51742C15.9287 2.8193 15.0426 2.47025 14.0044 2.47025C12.9661 2.47025 12.0711 2.8551 11.3193 3.62482C10.5675 4.39453 10.1916 5.3343 10.1916 6.44412C10.1916 7.30334 10.4153 8.07305 10.8629 8.75326C11.3104 9.43348 11.8921 9.89889 12.6081 10.1495C12.9303 10.2569 13.172 10.4627 13.3331 10.7671C13.4942 11.0714 13.5211 11.3846 13.4137 11.7068C13.2705 12.029 13.0377 12.2617 12.7155 12.4049C12.3933 12.5481 12.0711 12.566 11.7489 12.4586C10.9255 12.1722 10.2095 11.7158 9.60088 11.0893C8.99227 10.4627 8.50896 9.73778 8.15095 8.91437C6.79053 9.02177 5.60016 9.58563 4.57984 10.606C3.55952 11.6263 3.04936 12.8703 3.04936 14.3382C3.04936 15.8418 3.55057 17.1217 4.55299 18.1778C5.55541 19.2339 6.79053 19.762 8.25836 19.762C8.61636 19.762 8.91172 19.8694 9.14442 20.0842C9.37713 20.299 9.49348 20.5854 9.49348 20.9434C9.49348 21.3014 9.37713 21.5968 9.14442 21.8295C8.91172 22.0622 8.61636 22.1785 8.25836 22.1785C7.43494 22.1785 6.62943 22.0443 5.84181 21.7758C5.0542 21.5073 4.33818 21.1403 3.69377 20.6749C3.55057 21.0329 3.44317 21.3909 3.37156 21.7489C3.29996 22.1069 3.26416 22.4828 3.26416 22.8766C3.26416 24.4519 3.77432 25.7675 4.79464 26.8237C5.81496 27.8798 7.05903 28.4078 8.52686 28.4078C9.38608 28.4078 10.1826 28.2109 10.9166 27.8171C11.6505 27.4233 12.2859 26.9042 12.8229 26.2598C13.0377 25.9734 13.3063 25.7944 13.6285 25.7228C13.9507 25.6512 14.255 25.7228 14.5414 25.9376C14.792 26.1524 14.9531 26.4298 15.0247 26.77C15.0963 27.1101 15.0247 27.4054 14.8099 27.656C14.2371 28.4436 13.539 29.088 12.7155 29.5893C11.8921 30.0905 11.015 30.4306 10.0842 30.6096C10.12 31.5762 10.5138 32.4712 11.2656 33.2946C12.0174 34.118 12.9124 34.5298 13.9507 34.5298C15.0247 34.5298 15.9287 34.1807 16.6626 33.4826C17.3965 32.7845 17.7634 31.9342 17.7634 30.9318Z" fill="#8A2532"/>
</svg>
