<svg width="38" height="37" viewBox="0 0 38 37" fill="none" xmlns="http://www.w3.org/2000/svg">
<path d="M4.39922 15.7275L9.84922 18.0275C10.4826 16.7275 11.1742 15.4608 11.9242 14.2275C12.6742 12.9941 13.4826 11.8108 14.3492 10.6775L10.5492 9.92747C10.4492 9.92747 10.3576 9.94414 10.2742 9.97747C10.1909 10.0108 10.0992 10.0608 9.99922 10.1275L4.39922 15.7275ZM11.6492 19.3775L18.0492 25.7775C19.8826 24.9108 21.6242 23.9275 23.2742 22.8275C24.9242 21.7275 26.3326 20.5941 27.4992 19.4275C29.9992 16.8941 31.8492 14.3108 33.0492 11.6775C34.2492 9.04414 34.9325 5.91081 35.0992 2.27747C31.4659 2.44414 28.3326 3.12747 25.6992 4.32747C23.0659 5.52747 20.4992 7.37747 17.9992 9.87747C16.8326 11.0441 15.6992 12.4525 14.5992 14.1025C13.4992 15.7525 12.5159 17.5108 11.6492 19.3775ZM23.1492 14.2275C22.5492 13.6608 22.2492 12.9358 22.2492 12.0525C22.2492 11.1691 22.5492 10.4275 23.1492 9.82747C23.7492 9.22747 24.4909 8.92747 25.3742 8.92747C26.2576 8.92747 26.9992 9.22747 27.5992 9.82747C28.1992 10.4275 28.4992 11.1691 28.4992 12.0525C28.4992 12.9358 28.1992 13.6608 27.5992 14.2275C26.9992 14.8275 26.2576 15.1275 25.3742 15.1275C24.4909 15.1275 23.7492 14.8275 23.1492 14.2275ZM21.6492 32.9775L27.2992 27.4275C27.3659 27.3275 27.4076 27.2275 27.4242 27.1275C27.4409 27.0275 27.4492 26.9275 27.4492 26.8275L26.6992 23.0775C25.5659 23.9441 24.3826 24.7441 23.1492 25.4775C21.9159 26.2108 20.6492 26.9108 19.3492 27.5775L21.6492 32.9775ZM37.3992 0.0274725C37.5659 4.26081 36.9742 8.06914 35.6242 11.4525C34.2742 14.8358 32.1159 17.9941 29.1492 20.9275C29.0826 21.0275 29.0076 21.1191 28.9242 21.2025L28.6992 21.4275L29.6492 26.3775C29.7492 26.8775 29.7242 27.3525 29.5742 27.8025C29.4242 28.2525 29.1825 28.6441 28.8492 28.9775L20.8992 36.9275L17.0992 28.0775L9.29922 20.2775L0.449219 16.4775L8.39922 8.52747C8.76589 8.19414 9.17422 7.95247 9.62422 7.80247C10.0742 7.65247 10.5326 7.62747 10.9992 7.72747L15.9992 8.67747L16.1992 8.47747C16.2659 8.41081 16.3492 8.34414 16.4492 8.27747C19.4159 5.31081 22.5909 3.15247 25.9742 1.80247C29.3576 0.452473 33.1659 -0.139194 37.3992 0.0274725ZM3.74922 26.1775C4.71589 25.1775 5.89922 24.6858 7.29922 24.7025C8.69922 24.7191 9.89922 25.2108 10.8992 26.1775C11.8659 27.1441 12.3409 28.3275 12.3242 29.7275C12.3076 31.1275 11.8159 32.3108 10.8492 33.2775C10.0492 34.0775 8.84089 34.7358 7.22422 35.2525C5.60755 35.7691 3.36589 36.1941 0.499219 36.5275C0.865886 33.6941 1.29922 31.4525 1.79922 29.8025C2.29922 28.1525 2.94922 26.9441 3.74922 26.1775ZM5.34922 27.8275C4.88255 28.3275 4.47422 29.0775 4.12422 30.0775C3.77422 31.0775 3.48255 32.3108 3.24922 33.7775C4.71589 33.5775 5.95755 33.2941 6.97422 32.9275C7.99089 32.5608 8.73255 32.1441 9.19922 31.6775C9.79922 31.1441 10.0992 30.4941 10.0992 29.7275C10.0992 28.9608 9.83255 28.2941 9.29922 27.7275C8.73255 27.1941 8.06589 26.9358 7.29922 26.9525C6.53255 26.9691 5.88255 27.2608 5.34922 27.8275Z" fill="#8A2532"/>
</svg>
