<svg width="38" height="37" viewBox="0 0 38 37" fill="none" xmlns="http://www.w3.org/2000/svg">
<path d="M15.864 32.8447C12.416 31.7838 9.57207 29.7945 7.33232 26.8769C5.09258 23.9594 3.9727 20.585 3.9727 16.7539C3.9727 15.7519 4.05375 14.772 4.21583 13.8142C4.37792 12.8564 4.63579 11.906 4.98943 10.963L1.4972 12.9964L0.480469 11.2724L7.59755 7.20549L11.6645 14.2342L9.94044 15.2509L7.28811 10.7419C6.87553 11.685 6.55872 12.6649 6.3377 13.6816C6.11667 14.6983 6.00616 15.7372 6.00616 16.7981C6.00616 20.2166 7.03762 23.23 9.10054 25.8381C11.1635 28.4462 13.7716 30.1924 16.9249 31.0765L15.864 32.8447ZM27.3574 9.90203V7.91278H32.5737C31.1886 6.05615 29.4572 4.60474 27.3795 3.55854C25.3019 2.51235 23.0989 1.98925 20.7708 1.98925C18.7373 1.98925 16.8365 2.37236 15.0683 3.13859C13.3001 3.90482 11.7529 4.95101 10.4267 6.27718L9.36577 4.42055C10.8982 3.03544 12.6222 1.95241 14.5378 1.17145C16.4534 0.390482 18.5163 0 20.7266 0C23.2316 0 25.5966 0.515731 27.8216 1.54719C30.0466 2.57865 31.9548 4.0227 33.5462 5.87933V1.72401H35.5354V9.90203H27.3574ZM26.2965 37L19.2236 32.8889L23.2905 25.8602L25.0145 26.8327L22.318 31.4743C26.0902 31.0617 29.2361 29.463 31.7559 26.678C34.2756 23.8931 35.5354 20.5998 35.5354 16.7981C35.5354 16.1203 35.4912 15.4498 35.4028 14.7867C35.3144 14.1237 35.1818 13.4679 35.005 12.8196H37.0826C37.23 13.4679 37.3405 14.1163 37.4142 14.7646C37.4878 15.413 37.5247 16.0761 37.5247 16.7539C37.5247 20.8503 36.2353 24.4456 33.6567 27.54C31.078 30.6344 27.7995 32.55 23.821 33.2867L27.269 35.276L26.2965 37Z" fill="#8A2532"/>
</svg>
